<?xml version="1.0" standalone="no"?>
<!DOCTYPE svg PUBLIC "-//W3C//DTD SVG 20010904//EN"
 "http://www.w3.org/TR/2001/REC-SVG-20010904/DTD/svg10.dtd">
<svg version="1.0" xmlns="http://www.w3.org/2000/svg"
 width="175" height="235" viewBox="0 0 556.000000 278.000000"
 preserveAspectRatio="xMidYMid meet">

<g transform="translate(0.000000,278.000000) scale(0.100000,-0.100000)"
fill="#000000" stroke="none">
<path d="M0 1390 l0 -1390 2780 0 2780 0 0 1390 0 1390 -2780 0 -2780 0 0
-1390z m3085 870 l280 -280 -285 -285 -285 -285 -282 282 -283 283 282 282
c156 156 285 283 288 283 3 0 131 -126 285 -280z m960 -1194 c22 -10 37 -24
41 -40 8 -34 -2 -58 -23 -54 -22 4 -30 38 -11 49 10 8 9 12 -6 24 -28 21 -51
19 -81 -8 -37 -31 -25 -50 57 -94 79 -41 104 -75 93 -130 -11 -62 -92 -90
-172 -61 -29 10 -36 10 -43 -2 -7 -10 -10 0 -9 35 0 39 2 45 9 28 17 -43 118
-71 148 -41 16 16 15 63 -2 77 -7 6 -41 25 -75 42 -83 41 -101 85 -59 142 10
13 70 42 96 47 1 0 18 -6 37 -14z m-2463 -8 c-15 -15 -17 -298 -2 -298 6 0 10
-4 10 -10 0 -5 -25 -10 -56 -10 -50 0 -55 2 -48 18 5 9 10 76 12 148 3 111 1
134 -13 148 -15 15 -12 16 46 16 49 0 60 -3 51 -12z m290 0 c-8 -8 -12 -57
-12 -155 l0 -143 39 0 c52 0 88 14 94 37 3 10 5 2 4 -17 l-2 -35 -112 -3
c-104 -2 -133 4 -103 23 6 4 10 62 10 140 0 108 -3 137 -16 149 -14 15 -10 16
47 16 49 0 60 -3 51 -12z m410 0 c-8 -8 -12 -57 -12 -155 l0 -143 45 0 c35 0
52 6 70 25 22 21 25 22 25 5 0 -48 -6 -50 -122 -50 -101 0 -109 1 -102 18 5 9
10 73 12 140 3 100 0 128 -13 148 l-15 24 62 0 c48 0 59 -3 50 -12z m518 -128
c24 -78 49 -148 56 -158 21 -28 17 -32 -35 -32 -48 0 -50 1 -48 28 2 27 2 27
-72 30 l-74 3 6 -31 c6 -28 5 -30 -23 -30 -29 0 -41 15 -20 22 15 5 102 268
96 291 -3 14 3 17 33 17 l37 0 44 -140z m405 48 l60 -92 3 78 c2 49 -1 83 -9
92 -9 12 -6 14 22 14 26 0 30 -3 21 -12 -8 -8 -12 -58 -12 -161 0 -113 -3
-148 -12 -145 -7 3 -51 60 -98 128 l-85 124 -3 -114 c-2 -69 1 -117 8 -124 17
-17 11 -26 -20 -26 -16 0 -30 5 -30 10 0 6 5 10 10 10 15 0 13 283 -2 298 -9
9 -1 12 38 12 l49 0 60 -92z m494 60 c0 -30 -1 -31 -9 -10 -8 19 -17 22 -60
22 l-50 0 0 -70 0 -70 32 0 c17 0 40 7 50 17 17 15 18 14 18 -20 0 -21 -4 -37
-10 -37 -5 0 -10 5 -10 10 0 6 -18 10 -40 10 l-40 0 0 -65 0 -65 45 0 c36 0
52 6 71 25 14 14 26 25 28 25 2 0 0 -15 -3 -32 l-7 -33 -112 -3 c-103 -2 -132
4 -102 23 15 9 13 278 -2 293 -9 9 12 12 95 12 l107 0 -1 -32z m-739 -489 c0
-52 -2 -59 -20 -59 -16 0 -20 7 -20 36 0 23 7 42 18 51 9 8 12 12 5 9 -14 -7
-27 10 -18 24 3 5 12 7 20 3 11 -4 15 -21 15 -64z m-915 45 c14 -15 15 -18 0
-34 -14 -15 -14 -18 0 -30 10 -8 15 -9 15 -1 0 6 5 11 10 11 6 0 9 -12 7 -27
-3 -21 -9 -27 -33 -28 -16 -1 -37 2 -46 7 -20 10 -25 48 -7 48 7 0 9 10 5 24
-5 21 9 42 31 46 1 0 9 -7 18 -16z m1235 -43 c0 -59 0 -59 -32 -64 -43 -6 -57
0 -64 30 -8 31 21 66 49 57 17 -5 19 -3 14 15 -4 16 -1 21 14 21 17 0 19 -8
19 -59z m-929 -7 l17 -52 -49 2 c-27 0 -49 1 -49 2 0 0 7 24 16 53 19 67 41
65 65 -5z m163 30 c29 -11 17 -20 -21 -17 l-38 3 35 -12 c24 -9 35 -19 35 -33
0 -17 -8 -20 -47 -23 -30 -2 -48 1 -48 8 0 7 12 9 35 4 23 -4 35 -2 35 5 0 6
-14 11 -30 11 -34 0 -49 22 -30 45 13 16 47 20 74 9z m166 -14 c11 -11 20 -24
20 -29 0 -19 -32 -41 -59 -41 -51 0 -69 46 -29 74 30 21 44 20 68 -4z m174 0
c9 -9 0 -30 -15 -30 -5 0 -9 7 -9 16 0 22 -34 13 -38 -10 -5 -23 16 -37 45
-29 14 3 23 1 23 -6 0 -6 -19 -11 -45 -11 -48 0 -71 22 -59 55 12 31 71 40 98
15z m266 -26 l0 -45 -47 3 c-43 3 -48 6 -51 29 -4 35 18 55 62 57 l36 1 0 -45z
m311 36 c22 -13 25 -52 5 -69 -22 -18 -67 -9 -83 16 -13 19 -12 24 6 42 23 23
43 26 72 11z m176 -6 c2 -6 -11 -9 -34 -7 l-38 2 33 -8 c42 -11 57 -25 49 -45
-7 -18 -92 -23 -102 -6 -4 7 8 8 34 4 26 -4 41 -3 41 4 0 6 -15 12 -32 14 -35
3 -51 33 -26 49 17 12 70 7 75 -7z"/>
<path d="M2525 2230 l-250 -250 263 -263 263 -262 254 257 c140 142 255 261
255 265 0 5 -112 121 -250 258 l-250 250 0 -268 c0 -229 -2 -267 -15 -267 -13
0 -15 39 -17 265 l-3 265 -250 -250z"/>
<path d="M2698 1004 c-6 -9 -58 -171 -58 -180 0 -2 27 -4 60 -4 33 0 60 3 60
8 -1 23 -57 184 -62 176z"/>
<path d="M2016 575 c4 -8 10 -15 15 -15 5 0 9 7 9 15 0 8 -7 15 -15 15 -9 0
-12 -6 -9 -15z"/>
<path d="M2006 532 c-3 -5 1 -15 9 -22 21 -17 27 -9 10 13 -7 10 -16 14 -19 9z"/>
<path d="M3214 547 c-7 -20 1 -47 15 -47 17 0 22 33 7 49 -14 13 -16 13 -22
-2z"/>
<path d="M2300 530 c0 -5 5 -10 10 -10 6 0 10 5 10 10 0 6 -4 10 -10 10 -5 0
-10 -4 -10 -10z"/>
<path d="M2623 544 c-3 -8 1 -22 9 -30 13 -13 16 -13 28 0 10 13 10 19 0 31
-16 19 -29 19 -37 -1z"/>
<path d="M3057 554 c-10 -10 -9 -42 2 -48 5 -3 14 0 20 7 12 15 -9 54 -22 41z"/>
<path d="M3380 536 c0 -27 28 -43 36 -21 9 21 -3 45 -21 45 -9 0 -15 -9 -15
-24z"/>
</g>
</svg>
